<mxfile host="app.diagrams.net" agent="Mozilla/5.0 (Macintosh; Intel Mac OS X 10.15; rv:129.0) Gecko/20100101 Firefox/129.0" version="24.7.7">
  <diagram id="R2lEEEUBdFMjLlhIrx00" name="Page-1">
    <mxGraphModel grid="1" page="1" gridSize="10" guides="1" tooltips="1" connect="1" arrows="1" fold="1" pageScale="1" pageWidth="850" pageHeight="1100" math="0" shadow="0" extFonts="Permanent Marker^https://fonts.googleapis.com/css?family=Permanent+Marker">
      <root>
        <mxCell id="0" />
        <mxCell id="1" parent="0" />
        <mxCell id="bW0RP_EWTCG6UIoeXrNQ-1" value="元数据管理方案" style="swimlane;childLayout=stackLayout;resizeParent=1;resizeParentMax=0;horizontal=0;startSize=40;horizontalStack=0;html=1;fontSize=28;" vertex="1" parent="1">
          <mxGeometry x="150" y="270" width="1190" height="1600" as="geometry" />
        </mxCell>
        <mxCell id="bW0RP_EWTCG6UIoeXrNQ-2" value="&lt;br style=&quot;font-size: 18px;&quot;&gt;&lt;br style=&quot;font-size: 18px;&quot;&gt;&lt;br style=&quot;font-size: 18px;&quot;&gt;&lt;p style=&quot;margin: 0in; font-family: &amp;quot;Microsoft YaHei&amp;quot;; font-size: 18px;&quot;&gt;&lt;span style=&quot;font-weight: bold; font-size: 18px;&quot;&gt;元数据管理与维护 M1&lt;br style=&quot;font-size: 18px;&quot;&gt;&lt;/span&gt;&lt;/p&gt;&lt;br style=&quot;font-size: 18px;&quot;&gt;确保数据在生命周期内的质量 准确 可用&lt;br style=&quot;font-size: 18px;&quot;&gt;&lt;br style=&quot;font-size: 18px;&quot;&gt;&lt;br style=&quot;font-size: 18px;&quot;&gt;&lt;div style=&quot;font-size: 18px;&quot;&gt;&lt;br style=&quot;font-size: 18px;&quot;&gt;&lt;/div&gt;" style="swimlane;startSize=170;horizontal=0;html=1;fontSize=18;" vertex="1" parent="bW0RP_EWTCG6UIoeXrNQ-1">
          <mxGeometry x="40" width="1150" height="320" as="geometry" />
        </mxCell>
        <mxCell id="bW0RP_EWTCG6UIoeXrNQ-15" value="&lt;div align=&quot;left&quot; style=&quot;font-size: 24px;&quot;&gt;&lt;ul type=&quot;circle&quot; style=&quot;direction: ltr; unicode-bidi: embed; margin-top: 0in; font-size: 24px;&quot;&gt;&lt;li style=&quot;margin-top: 0px; margin-bottom: 0px; vertical-align: middle; font-size: 24px;&quot;&gt;&lt;span style=&quot;font-weight: bold; font-family: &amp;quot;Microsoft YaHei&amp;quot;; font-size: 24px;&quot;&gt;元数据标准&lt;/span&gt;&lt;span style=&quot;font-family: &amp;quot;Microsoft YaHei&amp;quot;; font-size: 24px;&quot;&gt;：定义元数据的格式、必填字段和标准化词汇。&lt;/span&gt;&lt;/li&gt;&lt;li style=&quot;margin-top: 0px; margin-bottom: 0px; vertical-align: middle; font-size: 24px;&quot;&gt;&lt;span style=&quot;font-weight: bold; font-family: &amp;quot;Microsoft YaHei&amp;quot;; font-size: 24px;&quot;&gt;质量控制&lt;/span&gt;&lt;span style=&quot;font-family: &amp;quot;Microsoft YaHei&amp;quot;; font-size: 24px;&quot;&gt;：定期检查元数据的完整性、时效性和准确性。&lt;/span&gt;&lt;/li&gt;&lt;li style=&quot;margin-top: 0px; margin-bottom: 0px; vertical-align: middle; font-size: 24px;&quot;&gt;&lt;span style=&quot;font-weight: bold; font-family: &amp;quot;Microsoft YaHei&amp;quot;; font-size: 24px;&quot;&gt;安全与合规&lt;/span&gt;&lt;span style=&quot;font-family: &amp;quot;Microsoft YaHei&amp;quot;; font-size: 24px;&quot;&gt;：确保元数据的安全存储和处理，符合相关的法律和伦理规定。&lt;/span&gt;&lt;/li&gt;&lt;/ul&gt;&lt;/div&gt;" style="text;html=1;align=left;verticalAlign=middle;resizable=0;points=[];autosize=1;strokeColor=none;fillColor=none;fontSize=24;" vertex="1" parent="bW0RP_EWTCG6UIoeXrNQ-2">
          <mxGeometry x="160" y="55" width="860" height="130" as="geometry" />
        </mxCell>
        <mxCell id="bW0RP_EWTCG6UIoeXrNQ-3" value="&lt;font style=&quot;font-size: 18px;&quot;&gt;&lt;br&gt;&lt;font style=&quot;font-size: 18px;&quot;&gt;&lt;br&gt;&lt;font style=&quot;font-size: 18px;&quot;&gt;&lt;br&gt;&lt;font style=&quot;font-size: 18px;&quot;&gt;&lt;br&gt;&lt;br&gt;&lt;/font&gt;&lt;/font&gt;&lt;/font&gt;&lt;/font&gt;&lt;p style=&quot;margin: 0in; font-size: 18px;&quot;&gt;&lt;font style=&quot;font-size: 18px;&quot;&gt;&lt;span style=&quot;font-weight:bold;font-family:Calibri&quot;&gt;&lt;span style=&quot;mso-spacerun:yes&quot;&gt;&amp;nbsp;&lt;/span&gt;&lt;/span&gt;&lt;span style=&quot;font-weight:bold;&lt;br/&gt;font-family:&amp;quot;Microsoft YaHei&amp;quot;&quot;&gt;数据共享与存档层 M2&lt;/span&gt;&lt;/font&gt;&lt;/p&gt;&lt;p style=&quot;margin: 0in; font-size: 18px;&quot;&gt;&lt;font style=&quot;font-size: 18px;&quot;&gt;&lt;span style=&quot;font-weight:bold;&lt;br/&gt;font-family:&amp;quot;Microsoft YaHei&amp;quot;&quot;&gt;确保数据可共享 可检索 可访问&lt;br&gt;&lt;/span&gt;&lt;/font&gt;&lt;/p&gt;&lt;font style=&quot;font-size: 18px;&quot;&gt;&lt;br&gt;&lt;br&gt;&lt;br&gt;&lt;br&gt;&lt;/font&gt;&lt;div style=&quot;font-size: 18px;&quot;&gt;&lt;font style=&quot;font-size: 18px;&quot;&gt;&lt;br&gt;&lt;/font&gt;&lt;/div&gt;" style="swimlane;startSize=170;horizontal=0;html=1;align=center;verticalAlign=middle;" vertex="1" parent="bW0RP_EWTCG6UIoeXrNQ-1">
          <mxGeometry x="40" y="320" width="1150" height="320" as="geometry" />
        </mxCell>
        <mxCell id="bW0RP_EWTCG6UIoeXrNQ-14" value="&lt;div align=&quot;left&quot; style=&quot;font-size: 24px;&quot;&gt;&lt;ul type=&quot;circle&quot; style=&quot;direction: ltr; unicode-bidi: embed; margin-top: 0in; font-size: 24px;&quot;&gt;&lt;li style=&quot;margin-top: 0px; margin-bottom: 0px; vertical-align: middle; font-size: 24px;&quot;&gt;&lt;span style=&quot;font-weight: bold; font-family: &amp;quot;Microsoft YaHei&amp;quot;; font-size: 24px;&quot;&gt;存储信息&lt;/span&gt;&lt;span style=&quot;font-family: &amp;quot;Microsoft YaHei&amp;quot;; font-size: 24px;&quot;&gt;：数据存放的位置、访问权限、数据格式等。&lt;/span&gt;&lt;/li&gt;&lt;li style=&quot;margin-top: 0px; margin-bottom: 0px; vertical-align: middle; font-size: 24px;&quot;&gt;&lt;span style=&quot;font-weight: bold; font-family: &amp;quot;Microsoft YaHei&amp;quot;; font-size: 24px;&quot;&gt;共享政策&lt;/span&gt;&lt;span style=&quot;font-family: &amp;quot;Microsoft YaHei&amp;quot;; font-size: 24px;&quot;&gt;：数据许可协议、使用条款、数据引用方式等。&lt;/span&gt;&lt;/li&gt;&lt;li style=&quot;margin-top: 0px; margin-bottom: 0px; vertical-align: middle; font-size: 24px;&quot;&gt;&lt;span style=&quot;font-weight: bold; font-family: &amp;quot;Microsoft YaHei&amp;quot;; font-size: 24px;&quot;&gt;数据索引&lt;/span&gt;&lt;span style=&quot;font-family: &amp;quot;Microsoft YaHei&amp;quot;; font-size: 24px;&quot;&gt;：如何检索数据、数据集描述、关联的出版物等&lt;/span&gt;&lt;/li&gt;&lt;/ul&gt;&lt;/div&gt;" style="text;html=1;align=left;verticalAlign=middle;resizable=0;points=[];autosize=1;strokeColor=none;fillColor=none;fontSize=24;" vertex="1" parent="bW0RP_EWTCG6UIoeXrNQ-3">
          <mxGeometry x="160" y="37.5" width="660" height="130" as="geometry" />
        </mxCell>
        <mxCell id="bW0RP_EWTCG6UIoeXrNQ-4" value="&lt;div style=&quot;font-size: 18px;&quot;&gt;数据分析（注册）层 M3&lt;/div&gt;&lt;div style=&quot;font-size: 18px;&quot;&gt;数据分析产生科学见解中的元数据&lt;br style=&quot;font-size: 18px;&quot;&gt;&lt;/div&gt;" style="swimlane;startSize=170;horizontal=0;html=1;fontSize=18;" vertex="1" parent="bW0RP_EWTCG6UIoeXrNQ-1">
          <mxGeometry x="40" y="640" width="1150" height="320" as="geometry" />
        </mxCell>
        <mxCell id="bW0RP_EWTCG6UIoeXrNQ-9" value="&lt;div align=&quot;left&quot; style=&quot;font-size: 24px;&quot;&gt;&lt;ul type=&quot;circle&quot; style=&quot;direction: ltr; unicode-bidi: embed; margin-top: 0in; line-height: 70%; font-size: 24px;&quot;&gt; &lt;li style=&quot;margin-top: 0px; margin-bottom: 0px; vertical-align: middle; font-size: 24px;&quot;&gt;&lt;font style=&quot;font-size: 24px;&quot;&gt;&lt;span style=&quot;font-weight: bold; font-family: &amp;quot;Microsoft YaHei&amp;quot;; font-size: 24px;&quot;&gt;分析方法&lt;/span&gt;&lt;span style=&quot;font-family: &amp;quot;Microsoft YaHei&amp;quot;; font-size: 24px;&quot;&gt;：使用的分析工具（如&lt;/span&gt;&lt;span style=&quot;font-family: Calibri; font-size: 24px;&quot;&gt;Seurat, Scanpy&lt;/span&gt;&lt;span style=&quot;font-family: &amp;quot;Microsoft YaHei&amp;quot;; font-size: 24px;&quot;&gt;）、工具版本、分析脚本、分析参数等。&lt;/span&gt;&lt;/font&gt;&lt;/li&gt;&lt;font style=&quot;font-size: 24px;&quot;&gt;&lt;br style=&quot;font-size: 24px;&quot;&gt;&lt;/font&gt; &lt;li style=&quot;margin-top: 0px; margin-bottom: 0px; vertical-align: middle; font-size: 24px;&quot;&gt;&lt;font style=&quot;font-size: 24px;&quot;&gt;&lt;span style=&quot;font-weight: bold; font-family: &amp;quot;Microsoft YaHei&amp;quot;; font-size: 24px;&quot;&gt;分析结果&lt;/span&gt;&lt;span style=&quot;font-family: &amp;quot;Microsoft YaHei&amp;quot;; font-size: 24px;&quot;&gt;：基因表达矩阵、差异表达分析、聚类分析结果等。&lt;/span&gt;&lt;/font&gt;&lt;/li&gt;&lt;font style=&quot;font-size: 24px;&quot;&gt;&lt;br style=&quot;font-size: 24px;&quot;&gt;&lt;/font&gt; &lt;li style=&quot;margin-top: 0px; margin-bottom: 0px; vertical-align: middle; font-size: 24px;&quot;&gt;&lt;font style=&quot;font-size: 24px;&quot;&gt;&lt;span style=&quot;font-weight: bold; font-family: &amp;quot;Microsoft YaHei&amp;quot;; font-size: 24px;&quot;&gt;统计数据&lt;/span&gt;&lt;span style=&quot;font-family: &amp;quot;Microsoft YaHei&amp;quot;; font-size: 24px;&quot;&gt;：&lt;/span&gt;&lt;span style=&quot;font-family: Calibri; font-size: 24px;&quot;&gt;p&lt;/span&gt;&lt;span style=&quot;font-family: &amp;quot;Microsoft YaHei&amp;quot;; font-size: 24px;&quot;&gt;值、校正方法、统计模型等。&lt;/span&gt;&lt;/font&gt;&lt;/li&gt;&lt;/ul&gt;&lt;/div&gt;" style="text;html=1;align=left;verticalAlign=middle;resizable=0;points=[];autosize=1;strokeColor=none;fillColor=none;fontSize=24;" vertex="1" parent="bW0RP_EWTCG6UIoeXrNQ-4">
          <mxGeometry x="170" y="57.5" width="1000" height="130" as="geometry" />
        </mxCell>
        <mxCell id="bW0RP_EWTCG6UIoeXrNQ-13" value="&lt;ul style=&quot;font-size: 18px;&quot;&gt;&lt;li align=&quot;left&quot; style=&quot;font-size: 18px;&quot;&gt;这一层定义处理元数据存量和增量的方法&lt;/li&gt;&lt;li align=&quot;left&quot; style=&quot;font-size: 18px;&quot;&gt;注意：处理新增元数据的注册、审核、发布对应单独的流程规范和数据标准&lt;br&gt;&lt;/li&gt;&lt;/ul&gt;" style="text;html=1;align=left;verticalAlign=middle;resizable=0;points=[];autosize=1;strokeColor=none;fillColor=none;fontSize=18;" vertex="1" parent="bW0RP_EWTCG6UIoeXrNQ-4">
          <mxGeometry x="160" y="150" width="660" height="100" as="geometry" />
        </mxCell>
        <mxCell id="bW0RP_EWTCG6UIoeXrNQ-6" value="&lt;font style=&quot;font-size: 18px;&quot;&gt;&lt;br style=&quot;font-size: 18px;&quot;&gt;&lt;/font&gt;&lt;p style=&quot;margin: 0in; font-size: 18px;&quot;&gt;&lt;font style=&quot;font-size: 18px;&quot;&gt;&lt;span style=&quot;font-weight: bold; font-family: Calibri; font-size: 18px;&quot;&gt;&amp;nbsp;&lt;/span&gt;&lt;span style=&quot;font-family: &amp;quot;Microsoft YaHei&amp;quot;; font-size: 18px;&quot;&gt;数据处理层 M4&lt;/span&gt;&lt;/font&gt;&lt;/p&gt;&lt;p style=&quot;margin: 0in; font-size: 18px;&quot;&gt;&lt;font style=&quot;font-size: 18px;&quot;&gt;记录数据从原始状态到分析就绪&lt;/font&gt;&lt;/p&gt;&lt;p style=&quot;margin: 0in; font-size: 18px;&quot;&gt;&lt;font style=&quot;font-size: 18px;&quot;&gt;状态的所有处理步骤的元数据&lt;/font&gt;&lt;/p&gt;&lt;font style=&quot;font-size: 18px;&quot;&gt;&lt;br style=&quot;font-size: 18px;&quot;&gt;&lt;/font&gt;&lt;div style=&quot;font-size: 18px;&quot;&gt;&lt;font style=&quot;font-size: 18px;&quot;&gt;&lt;br style=&quot;font-size: 18px;&quot;&gt;&lt;/font&gt;&lt;/div&gt;" style="swimlane;startSize=170;horizontal=0;html=1;fontSize=18;" vertex="1" parent="bW0RP_EWTCG6UIoeXrNQ-1">
          <mxGeometry x="40" y="960" width="1150" height="320" as="geometry" />
        </mxCell>
        <mxCell id="bW0RP_EWTCG6UIoeXrNQ-8" value="&lt;div align=&quot;left&quot; style=&quot;font-size: 24px;&quot;&gt;&lt;ul type=&quot;circle&quot; style=&quot;direction: ltr; unicode-bidi: embed; margin-top: 0in; font-size: 24px;&quot;&gt;&lt;li style=&quot;margin-top: 0px; margin-bottom: 0px; vertical-align: middle; font-size: 24px;&quot;&gt;&lt;span style=&quot;font-weight: bold; font-family: &amp;quot;Microsoft YaHei&amp;quot;; font-size: 24px;&quot;&gt;处理流程&lt;/span&gt;&lt;span style=&quot;font-family: &amp;quot;Microsoft YaHei&amp;quot;; font-size: 24px;&quot;&gt;：使用的数据处理软件（如&lt;/span&gt;&lt;span style=&quot;font-family: Calibri; font-size: 24px;&quot;&gt;Cell Ranger&lt;/span&gt;&lt;span style=&quot;font-family: &amp;quot;Microsoft YaHei&amp;quot;; font-size: 24px;&quot;&gt;）、版本、配置参数等。&lt;/span&gt;&lt;/li&gt;&lt;li style=&quot;margin-top: 0px; margin-bottom: 0px; vertical-align: middle; font-size: 24px;&quot;&gt;&lt;span style=&quot;font-weight: bold; font-family: &amp;quot;Microsoft YaHei&amp;quot;; font-size: 24px;&quot;&gt;数据质量控制&lt;/span&gt;&lt;span style=&quot;font-family: &amp;quot;Microsoft YaHei&amp;quot;; font-size: 24px;&quot;&gt;：质量控制指标，如读长分布、&lt;/span&gt;&lt;span style=&quot;font-family: Calibri; font-size: 24px;&quot;&gt;GC&lt;/span&gt;&lt;span style=&quot;font-family: &amp;quot;Microsoft YaHei&amp;quot;; font-size: 24px;&quot;&gt;含量、测序深度等。&lt;/span&gt;&lt;/li&gt;&lt;li style=&quot;margin-top: 0px; margin-bottom: 0px; vertical-align: middle; font-size: 24px;&quot;&gt;&lt;span style=&quot;font-weight: bold; font-family: &amp;quot;Microsoft YaHei&amp;quot;; font-size: 24px;&quot;&gt;输出文件信息&lt;/span&gt;&lt;span style=&quot;font-family: &amp;quot;Microsoft YaHei&amp;quot;; font-size: 24px;&quot;&gt;：处理后数据的文件名称、存储位置、数据格式（如&lt;/span&gt;&lt;span style=&quot;font-family: Calibri; font-size: 24px;&quot;&gt;BAM, H5AD&lt;/span&gt;&lt;span style=&quot;font-family: &amp;quot;Microsoft YaHei&amp;quot;; font-size: 24px;&quot;&gt;）等。&lt;/span&gt;&lt;/li&gt;&lt;/ul&gt;&lt;/div&gt;" style="text;html=1;align=left;verticalAlign=middle;resizable=0;points=[];autosize=1;strokeColor=none;fillColor=none;fontSize=24;" vertex="1" parent="bW0RP_EWTCG6UIoeXrNQ-6">
          <mxGeometry x="160" y="55" width="960" height="130" as="geometry" />
        </mxCell>
        <mxCell id="bW0RP_EWTCG6UIoeXrNQ-5" value="&lt;div style=&quot;font-size: 18px;&quot;&gt; 数据采集层 M5&lt;/div&gt;&lt;div style=&quot;font-size: 18px;&quot;&gt;捕获与原始数据采集相关的所有元数据&lt;/div&gt;" style="swimlane;startSize=170;horizontal=0;html=1;fontSize=18;" vertex="1" parent="bW0RP_EWTCG6UIoeXrNQ-1">
          <mxGeometry x="40" y="1280" width="1150" height="320" as="geometry" />
        </mxCell>
        <mxCell id="bW0RP_EWTCG6UIoeXrNQ-7" value="&lt;div align=&quot;left&quot; style=&quot;font-size: 24px;&quot;&gt;&lt;br style=&quot;font-size: 24px;&quot;&gt;&lt;ul type=&quot;circle&quot; style=&quot;direction: ltr; unicode-bidi: embed; margin-top: 0in; font-size: 24px;&quot;&gt;&lt;li style=&quot;margin-top: 0px; margin-bottom: 0px; vertical-align: middle; font-size: 24px;&quot;&gt;&lt;div style=&quot;font-size: 24px;&quot;&gt;&lt;span style=&quot;font-weight: bold; font-family: &amp;quot;Microsoft YaHei&amp;quot;; font-size: 24px;&quot;&gt;设备信息&lt;/span&gt;&lt;span style=&quot;font-family: &amp;quot;Microsoft YaHei&amp;quot;; font-size: 24px;&quot;&gt;：测序机型、配置、运行条件等。&lt;/span&gt;&lt;/div&gt;&lt;/li&gt;&lt;li style=&quot;margin-top: 0px; margin-bottom: 0px; vertical-align: middle; font-size: 24px;&quot;&gt;&lt;span style=&quot;font-weight: bold; font-family: &amp;quot;Microsoft YaHei&amp;quot;; font-size: 24px;&quot;&gt;样本信息&lt;/span&gt;&lt;span style=&quot;font-family: &amp;quot;Microsoft YaHei&amp;quot;; font-size: 24px;&quot;&gt;：样本来源、处理方法、采样时间等。&lt;/span&gt;&lt;/li&gt;&lt;li style=&quot;margin-top: 0px; margin-bottom: 0px; vertical-align: middle; font-size: 24px;&quot;&gt;&lt;span style=&quot;font-weight: bold; font-family: &amp;quot;Microsoft YaHei&amp;quot;; font-size: 24px;&quot;&gt;实验设置&lt;/span&gt;&lt;span style=&quot;font-family: &amp;quot;Microsoft YaHei&amp;quot;; font-size: 24px;&quot;&gt;：实验设计、实验操作者、实验日期、使用的试剂和化学品等。&lt;/span&gt;&lt;/li&gt;&lt;li style=&quot;margin-top: 0px; margin-bottom: 0px; vertical-align: middle; font-size: 24px;&quot;&gt;&lt;span style=&quot;font-weight: bold; font-family: &amp;quot;Microsoft YaHei&amp;quot;; font-size: 24px;&quot;&gt;数据生成&lt;/span&gt;&lt;span style=&quot;font-family: &amp;quot;Microsoft YaHei&amp;quot;; font-size: 24px;&quot;&gt;：原始数据文件（如&lt;/span&gt;&lt;span style=&quot;font-family: Calibri; font-size: 24px;&quot;&gt;FASTQ&lt;/span&gt;&lt;span style=&quot;font-family: &amp;quot;Microsoft YaHei&amp;quot;; font-size: 24px;&quot;&gt;文件）的名称、生成日期、文件大小等。&lt;/span&gt;&lt;/li&gt;&lt;/ul&gt;&lt;br style=&quot;font-size: 24px;&quot;&gt;&lt;br style=&quot;font-size: 24px;&quot;&gt;&lt;br style=&quot;font-size: 24px;&quot;&gt;&lt;br style=&quot;font-size: 24px;&quot;&gt;&lt;/div&gt;&lt;div align=&quot;left&quot; style=&quot;font-size: 24px;&quot;&gt;&lt;br style=&quot;font-size: 24px;&quot;&gt;&lt;/div&gt;" style="text;html=1;align=left;verticalAlign=middle;resizable=0;points=[];autosize=1;strokeColor=none;fillColor=none;fontSize=24;" vertex="1" parent="bW0RP_EWTCG6UIoeXrNQ-5">
          <mxGeometry x="160" y="20" width="890" height="340" as="geometry" />
        </mxCell>
        <mxCell id="bW0RP_EWTCG6UIoeXrNQ-16" value="元数据的采集、产生和新增" style="rounded=0;whiteSpace=wrap;html=1;fontSize=24;textDirection=vertical-lr;" vertex="1" parent="1">
          <mxGeometry x="1340" y="910" width="120" height="960" as="geometry" />
        </mxCell>
        <mxCell id="bW0RP_EWTCG6UIoeXrNQ-17" value="元数据的消费" style="rounded=0;whiteSpace=wrap;html=1;textDirection=vertical-lr;fontSize=24;" vertex="1" parent="1">
          <mxGeometry x="1340" y="590" width="120" height="320" as="geometry" />
        </mxCell>
        <mxCell id="bW0RP_EWTCG6UIoeXrNQ-18" value="元数据的运维" style="rounded=0;whiteSpace=wrap;html=1;textDirection=vertical-lr;fontSize=24;" vertex="1" parent="1">
          <mxGeometry x="1340" y="270" width="120" height="320" as="geometry" />
        </mxCell>
        <mxCell id="bW0RP_EWTCG6UIoeXrNQ-19" value="元数据标准的基础数据元的来源" style="rounded=0;whiteSpace=wrap;html=1;textDirection=vertical-lr;fontSize=24;" vertex="1" parent="1">
          <mxGeometry x="1460" y="910" width="110" height="960" as="geometry" />
        </mxCell>
        <mxCell id="bW0RP_EWTCG6UIoeXrNQ-20" value="技术工具" style="rounded=0;whiteSpace=wrap;html=1;textDirection=vertical-lr;fontSize=24;" vertex="1" parent="1">
          <mxGeometry x="1460" y="590" width="110" height="320" as="geometry" />
        </mxCell>
        <mxCell id="bW0RP_EWTCG6UIoeXrNQ-21" value="规范和制度" style="rounded=0;whiteSpace=wrap;html=1;textDirection=vertical-lr;fontSize=24;" vertex="1" parent="1">
          <mxGeometry x="1460" y="270" width="110" height="320" as="geometry" />
        </mxCell>
        <mxCell id="bW0RP_EWTCG6UIoeXrNQ-23" value="数据流结构" style="rounded=0;whiteSpace=wrap;html=1;fontSize=18;" vertex="1" parent="1">
          <mxGeometry x="1340" y="210" width="120" height="60" as="geometry" />
        </mxCell>
        <mxCell id="bW0RP_EWTCG6UIoeXrNQ-24" value="生产力要素" style="rounded=0;whiteSpace=wrap;html=1;fontSize=18;" vertex="1" parent="1">
          <mxGeometry x="1460" y="210" width="110" height="60" as="geometry" />
        </mxCell>
        <mxCell id="bW0RP_EWTCG6UIoeXrNQ-25" value="元数据管理整体架构" style="rounded=0;whiteSpace=wrap;html=1;fontSize=28;" vertex="1" parent="1">
          <mxGeometry x="150" y="210" width="1190" height="60" as="geometry" />
        </mxCell>
      </root>
    </mxGraphModel>
  </diagram>
</mxfile>
